<svg width="1484" height="339" viewBox="0 0 1484 339" fill="none" xmlns="http://www.w3.org/2000/svg">
<g clip-path="url(#clip0_36_29)">
<path fill-rule="evenodd" clip-rule="evenodd" d="M1409.54 45.5H1428.5C1459.5 45.5 1466.5 33.5 1477.5 0C1483.1 2.80046 1500.2 80.1053 1431.52 90.3766C1431.25 76.7946 1425.94 55.977 1409.54 45.5Z" fill="#FF4444"/>
<path fill-rule="evenodd" clip-rule="evenodd" d="M626.533 45.5H521.033H518.533L529.533 59.5V247.5L510.162 266.87C554.001 264.406 599.656 262.615 646.7 261.572L648.5 261.5C654 261 653.533 255.5 653.533 255.5V79C653.533 52.2 635.533 45.5 626.533 45.5ZM607.032 65.5H577.5C574.532 65.5 574.532 68 574.532 68V233C574.532 236 574.532 235 574.532 238.5C574.532 241 574.532 242.5 578 242.5C583.073 242.342 593.434 242.065 607 241.47C610.165 241.319 610.059 238.603 610.01 237.345C610.005 237.212 610 237.096 610 237C610 189.555 610.022 106.107 610.03 77.7266V77.3663C610.031 71.7669 610.032 68.3996 610.032 68C610.032 65.6 608.032 65.5 607.032 65.5Z" fill="#FF4444"/>
<path fill-rule="evenodd" clip-rule="evenodd" d="M666.532 45.5H722.032C723.199 45.5 725.532 46.2 725.532 49V86.5L761.032 153V59.5L748.532 45.5H775.032C784.865 45.5 804.532 52.5 804.532 80.5V251.5L810.531 260.998C804.293 260.904 798.033 260.823 791.751 260.756C778.171 260.599 767.792 260.53 761.032 260.53V184.5L725.532 123V233.5V243L728 245.5L742.532 260.5C741.753 260.5 740.941 260.501 740.097 260.502C719.469 260.52 699.04 260.681 678.843 260.978C673.888 261.043 669.791 261.108 667.069 261.168C666.891 261.171 666.713 261.174 666.535 261.177C668.626 258.877 671.718 255.426 674.669 252.133C677.364 249.126 679.941 246.25 681.532 244.5L682.532 59.5L666.532 45.5Z" fill="#FF4444"/>
<g filter="url(#filter0_d_36_29)">
<path fill-rule="evenodd" clip-rule="evenodd" d="M962.532 45.5H1019.53V36.5L1005.53 21H1079.03L1065.53 36.5V41.5V45.5H1098.53L1117.53 65.5H1065.53V243V253.7L1067.03 255.5L1082.24 274.285C1054.99 271.917 1026.75 269.826 997.672 268.034L1019.53 248.5V65.5H980.032L962.532 45.5Z" fill="#FF4444"/>
</g>
<path fill-rule="evenodd" clip-rule="evenodd" d="M824.532 45.5H931.532C941.199 45.5 960.532 52.5 960.532 80.5C932.532 93.7 920.532 99 918.032 100V68.5C918.032 68.4331 918.034 68.3575 918.036 68.2752C918.06 67.3326 918.107 65.5 915.532 65.5H885C882.5 65.5 882.532 68.2752 882.532 68.2752V138L960.532 100V236C960.532 245.452 954.481 263.347 931.129 264.529C895.797 262.975 859.44 261.85 822.266 261.19L837.532 241V201.5L882.532 179.5V237.5C882.5 240.5 885.5 240.5 885.5 240.5L914.532 241.5C915.699 241.5 918.032 240.8 918.032 238V143L837.532 182.5V59L824.532 45.5Z" fill="#FF4444"/>
<path fill-rule="evenodd" clip-rule="evenodd" d="M1124.53 45.5H1227.53C1239.53 45.6667 1263.53 55.9 1263.53 95.5C1229.53 113.1 1220.03 117.833 1219.53 118V68.5C1219.53 68.4003 1219.53 68.2958 1219.54 68.1879C1219.56 67.0334 1219.59 65.5 1217.03 65.5H1173.53L1184.53 78.5V152L1216.03 136.5C1217.53 135.5 1220.53 135 1220.53 141V172L1210.53 162.5L1184.53 177V249.5L1169.03 261.5C1172.2 261.873 1176.22 262.311 1180.73 262.803C1192.36 264.071 1207.29 265.699 1219.53 267.5C1219.53 260.854 1220.1 239.352 1220.45 226.121C1220.48 225.019 1220.51 223.974 1220.53 223L1263.53 200.5V259C1263.37 271.5 1255.03 295.2 1223.03 290C1222.66 290 1221.62 289.918 1220.01 289.766C1189.25 285.403 1156.37 281.454 1121.66 277.971L1137.03 265V66.5L1118.03 45.5H1124.53Z" fill="#FF4444"/>
<path fill-rule="evenodd" clip-rule="evenodd" d="M284.532 45.5H355.532L342.032 59.5V66V72V88.5L406.532 54C411.699 56 422.032 67.9 422.032 87.5C435.011 80.1336 441.346 76.4586 448.459 72.3314C451.485 70.5758 454.653 68.7383 458.532 66.5V59.5L448.532 45.5H467.032C478.366 45.5 501.032 54.1 501.032 88.5V229.5C501.032 252.5 476.532 268.5 443.199 271.167C452.199 262.667 458.532 252.5 458.532 238.5V90L422.032 111V205.5C422.032 212.5 418.532 217.071 414.532 220.5C388.093 244.002 385.386 246.467 382.644 248.893C381.653 249.769 380.657 250.641 378.532 252.5V92.5L342.032 112V250V260.66L344.532 263L360.949 278.422C334.178 281.152 308.509 284.159 284.082 287.422L299.532 263V59.5L284.532 45.5Z" fill="#FF4444"/>
<path fill-rule="evenodd" clip-rule="evenodd" d="M126.032 45.5H55.0321C24.0321 45.5 17.0321 33.5 6.03208 0C0.0321126 3 -19.1679 91.5 68.0321 91.5V317.5L56.2011 338.204C74.9963 330.487 98.2063 323.156 125.299 316.303L112.532 305.5V260V250V116.5L149.032 95.5V280.5C150.5 279.215 151.53 278.318 152.457 277.512C156.578 273.922 158.638 272.128 188.032 246C192.032 242.571 192.532 236.5 192.532 229.5V114L229.032 92.5V238.5C229.032 252.471 214.094 290.842 205.088 299.447C207.093 299.091 209.11 298.737 211.139 298.385C240.887 292.651 271.532 281.433 271.532 229.5V88.5C271.532 54.1 248.865 45.5 237.532 45.5H219.032L229.032 59.5V66.5C225.152 68.7383 221.985 70.5758 218.959 72.3314C211.845 76.4586 205.511 80.1336 192.532 87.5C192.532 67.9 182.199 56 177.032 54L112.532 91.5V72V64V59.5L126.032 45.5Z" fill="#FF4444"/>
<path fill-rule="evenodd" clip-rule="evenodd" d="M1356.49 72.9488L1334.53 85.5V76.5V71.5V65.5L1350.03 45.5H1273.03L1289.53 65.5V285.5L1275.87 298.723C1296.77 302.377 1316.36 306.245 1334.53 310.306V198L1370.53 177V319.106C1391.54 324.739 1409.97 330.674 1425.54 336.864L1415.53 323V175.5L1402.53 160L1415.53 147.5V91.5C1415.53 70.7677 1404.53 58.7955 1392.63 52.2932L1356.5 73L1356.49 72.9488ZM1334.53 170.5L1370.53 149.5V91L1334.53 112V170.5Z" fill="#FF4444"/>
</g>
<defs>
<filter id="filter0_d_36_29" x="958.532" y="21" width="162.998" height="261.285" filterUnits="userSpaceOnUse" color-interpolation-filters="sRGB">
<feFlood flood-opacity="0" result="BackgroundImageFix"/>
<feColorMatrix in="SourceAlpha" type="matrix" values="0 0 0 0 0 0 0 0 0 0 0 0 0 0 0 0 0 0 127 0" result="hardAlpha"/>
<feOffset dy="4"/>
<feGaussianBlur stdDeviation="2"/>
<feComposite in2="hardAlpha" operator="out"/>
<feColorMatrix type="matrix" values="0 0 0 0 0 0 0 0 0 0 0 0 0 0 0 0 0 0 0.25 0"/>
<feBlend mode="normal" in2="BackgroundImageFix" result="effect1_dropShadow_36_29"/>
<feBlend mode="normal" in="SourceGraphic" in2="effect1_dropShadow_36_29" result="shape"/>
</filter>
<clipPath id="clip0_36_29">
<rect width="1484" height="339" fill="#FF4444"/>
</clipPath>
</defs>
</svg>
