<svg width="331" height="312" viewBox="0 0 331 312" fill="none" xmlns="http://www.w3.org/2000/svg">
<path fill-rule="evenodd" clip-rule="evenodd" d="M239.745 45.5L244.5 87.5L268.898 91.3339C348.74 87.0898 330.349 2.92433 324.5 0C313.5 33.5 306.5 45.5 275.5 45.5H239.745Z" fill="#FF4444"/>
<path d="M55.0321 45.5H126.032L112.532 59.5H94.5L112.532 77V91.5L177.032 54C182.199 56 192.532 67.9 192.532 87.5C211.032 77 216.032 74 229.032 66.5V59.5L219.032 45.5H237.532C248.865 45.5 271.532 54.1 271.532 88.5V229.5C271.532 285 238.5 293.5 205 297C225.5 277 229.032 256.5 229.032 238.5V92.5L192.532 114V229.5C192.532 236.5 192.032 242.571 188.032 246C152.032 278 157.032 273.5 149.032 280.5V95.5L112.532 116.5V250V260V289.5L124.5 305L57 312L68.0321 292.5V91.5C-19.1679 91.5 0.0321021 3 6.03207 0C17.0321 33.5 24.0321 45.5 55.0321 45.5Z" fill="#FF4444"/>
</svg>
