<svg width="240" height="240" viewBox="0 0 240 240" fill="none" xmlns="http://www.w3.org/2000/svg">
<rect width="240" height="240" fill="#1E2030"/>
<g clip-path="url(#clip0_244_1744)">
<path fill-rule="evenodd" clip-rule="evenodd" d="M154.929 68.2917L157.149 87.9455L168.539 89.7396C205.815 87.7536 197.229 48.3684 194.498 47C189.363 62.6763 186.094 68.2917 171.622 68.2917H154.929Z" fill="#FF4444"/>
<path d="M68.6927 68.2917H101.84L95.5375 74.8429H87.119L95.5375 83.0321V89.8173L125.65 72.2692C128.063 73.2051 132.887 78.7737 132.887 87.9455C141.524 83.0321 143.858 81.6282 149.928 78.1186V74.8429L145.259 68.2917H153.896C159.187 68.2917 169.769 72.316 169.769 88.4135V154.394C169.769 180.365 154.348 184.343 138.708 185.981C148.279 176.622 149.928 167.029 149.928 158.606V90.2853L132.887 100.346V154.394C132.887 157.67 132.654 160.511 130.786 162.115C113.979 177.09 116.313 174.984 112.578 178.26V91.6891L95.5375 101.516V163.987V168.667V182.471L101.125 189.724L69.6115 193L74.762 183.875V89.8173C34.0511 89.8173 43.015 48.4038 45.8162 47C50.9517 62.6763 54.2198 68.2917 68.6927 68.2917Z" fill="#FF4444"/>
</g>
<defs>
<clipPath id="clip0_244_1744">
<rect width="155" height="146" fill="white" transform="translate(43 47)"/>
</clipPath>
</defs>
</svg>
